<?xml version="1.0" encoding="UTF-8" standalone="no"?>
<!DOCTYPE svg PUBLIC "-//W3C//DTD SVG 1.1//EN" "http://www.w3.org/Graphics/SVG/1.1/DTD/svg11.dtd">
<svg width="100%" height="100%" viewBox="0 0 1000 1000" version="1.1" xmlns="http://www.w3.org/2000/svg" xmlns:xlink="http://www.w3.org/1999/xlink" xml:space="preserve" xmlns:serif="http://www.serif.com/" style="fill-rule:evenodd;clip-rule:evenodd;stroke-linejoin:round;stroke-miterlimit:2;">
    <g transform="matrix(1.107028,0,0,4.687027,-14.391358,-1843.51356)">
        <path d="M132,535.7C66.278,535.7 13,522.38 13,505.95L13,494.05C13,477.62 66.278,464.3 132,464.3L487.879,464.3C487.879,464.3 447.91,454.235 407.397,444.032C385.162,438.432 372.735,430.854 372.851,422.964C372.966,415.074 385.614,407.518 408.012,401.959C408.012,401.959 408.012,401.959 408.012,401.959C454.654,390.384 530,390.453 576.302,402.113C662.468,423.812 795.83,457.398 881.772,479.041C927.836,490.641 927.836,509.359 881.772,520.959C795.83,542.602 662.468,576.188 576.302,597.887C530,609.547 454.654,609.616 408.012,598.041C408.012,598.041 408.012,598.041 408.012,598.041C361.37,586.465 361.095,567.628 407.397,555.968C447.91,545.765 487.879,535.7 487.879,535.7L132,535.7Z"/>
    </g>
</svg>
